REM DIRINDEX 1\2,1\4,1\3\5,1\3\6,1\3\7
REM DIRNAME cjc081,folder01,folder02,folder03,folder04,folder05,folder06
TITLE ""
FILE "CD3Track13.mp3" MP3
  TRACK 01 AUDIO
    TITLE "0:"
    INDEX 01 00:00:00
  TRACK 02 AUDIO
    TITLE "5:cjc081_2510"
    INDEX 01 00:00:25
  TRACK 03 AUDIO
    TITLE "0:"
    INDEX 01 00:01:54
  TRACK 04 AUDIO
    TITLE "6:cjc081_2511"
    INDEX 01 00:02:26
  TRACK 05 AUDIO
    TITLE "0:"
    INDEX 01 00:04:60
  TRACK 06 AUDIO
    TITLE "5:cjc081_2512"
    INDEX 01 00:05:32
  TRACK 07 AUDIO
    TITLE "0:"
    INDEX 01 00:06:51
  TRACK 08 AUDIO
    TITLE "6:cjc081_2513"
    INDEX 01 00:07:21
  TRACK 09 AUDIO
    TITLE "0:"
    INDEX 01 00:09:57
  TRACK 10 AUDIO
    TITLE "5:cjc081_2514"
    INDEX 01 00:10:27
  TRACK 11 AUDIO
    TITLE "0:"
    INDEX 01 00:11:56
  TRACK 12 AUDIO
    TITLE "6:cjc081_2515"
    INDEX 01 00:12:26
  TRACK 13 AUDIO
    TITLE "0:"
    INDEX 01 00:13:39
  TRACK 14 AUDIO
    TITLE "5:cjc081_2516"
    INDEX 01 00:14:07
  TRACK 15 AUDIO
    TITLE "0:"
    INDEX 01 00:15:36
  TRACK 16 AUDIO
    TITLE "6:cjc081_2517"
    INDEX 01 00:16:02
  TRACK 17 AUDIO
    TITLE "0:"
    INDEX 01 00:17:21
  TRACK 18 AUDIO
    TITLE "5:cjc081_2518"
    INDEX 01 00:17:63
  TRACK 19 AUDIO
    TITLE "0:"
    INDEX 01 00:19:24
  TRACK 20 AUDIO
    TITLE "6:cjc081_2519"
    INDEX 01 00:19:67
  TRACK 21 AUDIO
    TITLE "0:"
    INDEX 01 00:22:13
  TRACK 22 AUDIO
    TITLE "5:cjc081_2520"
    INDEX 01 00:22:52
  TRACK 23 AUDIO
    TITLE "0:"
    INDEX 01 00:23:59
  TRACK 24 AUDIO
    TITLE "6:cjc081_2521"
    INDEX 01 00:24:25
  TRACK 25 AUDIO
    TITLE "0:"
    INDEX 01 00:25:33
  TRACK 26 AUDIO
    TITLE "5:cjc081_2522"
    INDEX 01 00:25:72
  TRACK 27 AUDIO
    TITLE "0:"
    INDEX 01 00:27:30
  TRACK 28 AUDIO
    TITLE "6:cjc081_2523"
    INDEX 01 00:27:71
  TRACK 29 AUDIO
    TITLE "0:"
    INDEX 01 00:28:66
  TRACK 30 AUDIO
    TITLE "5:cjc081_2524"
    INDEX 01 00:29:36
  TRACK 31 AUDIO
    TITLE "0:"
    INDEX 01 00:30:54
  TRACK 32 AUDIO
    TITLE "6:cjc081_2525"
    INDEX 01 00:31:24
  TRACK 33 AUDIO
    TITLE "0:"
    INDEX 01 00:33:11
  TRACK 34 AUDIO
    TITLE "5:cjc081_2526"
    INDEX 01 00:33:54
  TRACK 35 AUDIO
    TITLE "0:"
    INDEX 01 00:35:15
  TRACK 36 AUDIO
    TITLE "6:cjc081_2527"
    INDEX 01 00:35:61
  TRACK 37 AUDIO
    TITLE "0:"
    INDEX 01 00:37:10
  TRACK 38 AUDIO
    TITLE "5:cjc081_2528"
    INDEX 01 00:37:50
  TRACK 39 AUDIO
    TITLE "0:"
    INDEX 01 00:39:33
  TRACK 40 AUDIO
    TITLE "6:cjc081_2529"
    INDEX 01 00:39:72
  TRACK 41 AUDIO
    TITLE "0:"
    INDEX 01 00:42:37
  TRACK 42 AUDIO
    TITLE "5:cjc081_2530"
    INDEX 01 00:43:05
  TRACK 43 AUDIO
    TITLE "0:"
    INDEX 01 00:44:36
  TRACK 44 AUDIO
    TITLE "6:cjc081_2531"
    INDEX 01 00:45:08
  TRACK 45 AUDIO
    TITLE "0:"
    INDEX 01 00:47:09
  TRACK 46 AUDIO
    TITLE "5:cjc081_2532"
    INDEX 01 00:47:50
  TRACK 47 AUDIO
    TITLE "0:"
    INDEX 01 00:49:29
  TRACK 48 AUDIO
    TITLE "6:cjc081_2533"
    INDEX 01 00:49:70
  TRACK 49 AUDIO
    TITLE "0:"
    INDEX 01 00:52:08
  TRACK 50 AUDIO
    TITLE "5:cjc081_2534"
    INDEX 01 00:52:51
  TRACK 51 AUDIO
    TITLE "0:"
    INDEX 01 00:54:11
  TRACK 52 AUDIO
    TITLE "6:cjc081_2535"
    INDEX 01 00:54:56
  TRACK 53 AUDIO
    TITLE "0:"
    INDEX 01 00:55:65
  TRACK 54 AUDIO
    TITLE "5:cjc081_2536"
    INDEX 01 00:56:35
  TRACK 55 AUDIO
    TITLE "0:"
    INDEX 01 00:58:22
  TRACK 56 AUDIO
    TITLE "6:cjc081_2537"
    INDEX 01 00:58:66
  TRACK 57 AUDIO
    TITLE "0:"
    INDEX 01 01:01:52
  TRACK 58 AUDIO
    TITLE "5:cjc081_2538"
    INDEX 01 01:02:22
  TRACK 59 AUDIO
    TITLE "0:"
    INDEX 01 01:03:47
  TRACK 60 AUDIO
    TITLE "6:cjc081_2539"
    INDEX 01 01:04:21
  TRACK 61 AUDIO
    TITLE "0:"
    INDEX 01 01:06:67
  TRACK 62 AUDIO
    TITLE "7:cjc081_2540"
    INDEX 01 01:08:31
  TRACK 63 AUDIO
    TITLE "0:"
    INDEX 01 01:19:19
